<?xml version="1.0" encoding="UTF-8"?>
<!DOCTYPE svg PUBLIC "-//W3C//DTD SVG 1.1//EN" "http://www.w3.org/Graphics/SVG/1.1/DTD/svg11.dtd">
<!-- Creator: CorelDRAW 2020 (64-Bit) -->
<svg xmlns="http://www.w3.org/2000/svg" xml:space="preserve" width="210mm" height="297mm" version="1.1" style="shape-rendering:geometricPrecision; text-rendering:geometricPrecision; image-rendering:optimizeQuality; fill-rule:evenodd; clip-rule:evenodd"
viewBox="0 0 21000 29700"
 xmlns:xlink="http://www.w3.org/1999/xlink"
 xmlns:xodm="http://www.corel.com/coreldraw/odm/2003">
 <defs>
  <style type="text/css">
   <![CDATA[
    .fil0 {fill:#7F5F52}
   ]]>
  </style>
 </defs>
 <g id="Capa_x0020_1">
  <metadata id="CorelCorpID_0Corel-Layer"/>
  <path class="fil0" d="M14254.28 7438.02c-295.24,7.71 -369.68,-507.6 -261.62,-725.53 96.77,20.05 213.45,172.02 254.05,276.38 54.16,139.21 51.23,303.19 7.57,449.15zm-1964.27 -1350.5c-69.53,-125.08 -160.75,-225.08 -105.01,-452.42 30.92,-126.08 149.7,-310.02 244.19,-347.96 63.94,133.59 157.26,267.75 140.85,466.34 -13.45,162.81 -142.98,303.34 -280.03,334.04zm-1353.22 -460.72c-181.3,-47.89 -368.03,-244.23 -427.98,-423.16 -79.21,-236.31 0.37,-512.09 127.95,-670.86 57.29,16.51 180.68,152.06 213.69,195.87 128.7,170.87 219.12,385.63 200,614.27 -8.23,98.34 -54.61,238 -113.66,283.88zm1470.65 -827.42c100.43,-93.12 265.04,-150.16 448.54,-109.71 171.27,37.76 274.76,136.86 357.12,219.07 -59.42,136.72 -256,208.86 -443.33,145.3 -156.02,-52.93 -280.04,-162.71 -362.33,-254.66zm-3179.6 198.65c55.09,-501.6 789.78,-737.77 1172.21,-610.07 -124.35,619.36 -680.11,866.63 -1172.21,610.07zm1709.54 -744.58c26.38,-149.74 205.59,-283.94 330.52,-346.65 188.81,-94.77 355.65,-102.28 585.09,-78.47 -42,233.47 -161.23,391.6 -310.65,486.4 -133.54,84.72 -153.14,68.6 -302.84,24.83 -61.06,-17.85 -260.28,-62.74 -302.12,-86.11zm-200.7 -42.41c-128.23,-14.87 -268.66,-49.5 -400.2,-68.91 -446.79,-65.94 -889.8,-89.75 -1339.63,-41.73 -1002.91,107.07 -1960.17,532.97 -2687.16,1137.6l-258.1 219.57c-233.36,186.77 -518.6,501.37 -701.91,731.72 -559.35,702.85 -907.88,1697.6 -953.52,2856.37 -23.58,598.54 29.06,1179.37 183.79,1720.41 181.01,632.95 491.99,1209.68 902.97,1708.21l221.05 256.92c134.06,162.55 444.31,437.69 617.03,582.86 84.56,71.07 177.63,140.03 270.78,207.16 1035.59,746.24 2382.18,1088.93 3777.13,888.13 1107.69,-159.45 1798.44,-527.36 2230.92,-1592.27 215.42,-530.4 249.41,-1054.69 236.54,-1674.04 -3.19,-153.95 -48.33,-1765.3 -30.62,-1873.96 118.42,0.58 518.95,16.12 602.33,-10.48 151.15,-48.22 224.95,-230.13 138.49,-403.31 -94.17,-188.6 -555.61,-480.77 -742.21,-624.49 -47.74,-36.77 -39.19,-30.46 -41.11,-109.63 -2.46,-100.85 -6.72,-203.8 -10.34,-303.56 -5.99,-165.12 28.28,-450.67 -91.53,-521.49 -105.55,-62.38 -415.35,-56.18 -557.87,-52.65 -93.67,2.33 -196.09,7.28 -286.01,25.05 -131.83,26.04 -119.57,40.75 -169.52,138.19 -115.31,-47.49 -487.95,-363.49 -606.33,-457.85 -208.24,-165.97 -425.78,-391.07 -729.17,-297.24 -174.67,54.02 -476.18,316.85 -632.34,434.36 -656.51,494 -1350.81,965.25 -1993.16,1474.15l-145.7 120.94c-74.94,73.47 -201.25,171.19 -196.11,339.74 10.25,336.05 531.56,243.43 811.7,255.76 0,981.46 -0.08,1962.91 -0.08,2944.36 0,253.2 -10.38,455.87 184.62,550.8 182.36,88.78 458.24,55.09 672.97,56.99 489.11,4.33 982.09,6.6 1470.16,-6.85 71.23,-118.14 215,-257.77 306.21,-380.17 304.38,-408.43 566.22,-781.52 810.37,-1256.39 373.98,-727.35 -269.12,-1131.97 -797.54,-953.53 -220.52,74.47 -263.91,159.4 -411.28,292.42 -76.34,-39.03 -332.88,-395.49 -764.86,-334.94 -561.7,78.72 -767.34,764.04 -270.73,1378.17 130.66,161.57 260.96,287.75 419.15,414.11 46.67,37.28 106.68,89.68 160.83,118.29 39.24,-44.1 90.14,-108.75 118.28,-155.83l-235.34 -194.67c-159.65,-130.94 -301.18,-277.53 -413.36,-464.67 -175.32,-292.49 -209.97,-758.18 191.6,-880.43 300.33,-91.43 528.05,149.45 666.09,289.34 40.84,41.41 128.25,164.05 216.96,71.12 27.05,-28.34 55.18,-93.68 90.32,-131.7 196.36,-212.44 489.79,-332.23 773.66,-153.8 226.65,142.47 198.61,374.31 75.45,614.51 -272.53,531.54 -595.06,1010.38 -977.61,1455.44 -50.78,59.07 -35.21,73.55 -149.82,74.31 -210.74,1.42 -1559.58,21.14 -1741.3,-6.46 -152.16,-23.12 -192.21,-80.84 -192.16,-240.35 0.38,-1032.65 -11.6,-2066.77 0.58,-3099.17 97.15,-3.02 218.67,-16.5 245.93,-101.29 -16.63,-52.15 -28.86,-44 -81.66,-65.77 -43,-17.73 -65.39,-28.36 -117.98,-36.34 -218.48,-33.14 -708.41,63.82 -856.32,-42.75 -3.79,-114.67 136.27,-208.68 202.68,-261.38 437.3,-346.96 905.8,-679.1 1356.67,-1010.15l1086.66 -813.29c292,-225.97 413.38,-74.83 626.33,88.29 180.21,138.05 348.94,278.48 530.4,414.24 92.74,69.38 179.89,132.23 280.48,197.56 217.97,141.53 206.86,-100.38 219.18,-177.29 189.87,-39.22 490.97,-27.5 685.09,-4.67l29.82 848.02c87.34,41.76 360.58,260.2 455.65,332.97 78.62,60.18 148.08,111.76 218.32,170.91 48.88,41.15 201.99,167.39 116.27,237.64 -53.63,37.1 -642.49,6.43 -763.42,12.49 6.52,573.09 29.96,1147.01 37.53,1720.46 7.85,595.17 32.99,1086.09 -117.71,1644.04 -180.69,668.97 -555.52,1229.21 -1140.43,1504.44 -202.12,95.12 -443.58,159.94 -679.69,208.84 -1055.76,218.67 -2113.07,131.05 -3032.48,-259.31 -445.28,-189.06 -780.59,-396.57 -1115.4,-651.5 -344.11,-262.01 -613.82,-545.63 -893.41,-873.47 -572.04,-670.74 -949.42,-1570.7 -1034.21,-2497.13 -123.55,-1349.69 161.13,-2656.71 954.97,-3627.82 107.88,-131.96 301.37,-340.69 423.06,-454.74 599.76,-562.05 1236.18,-994.68 2051.43,-1271.14 418.35,-141.87 1052.27,-255.78 1535.85,-232.85 -104.1,84.59 -230.51,94.51 -387.54,303.34 -112.15,149.14 -174.71,275.87 -174.72,518.16 11.31,21.72 5.01,12.01 21.39,27.11 60.53,55.78 178.63,97.45 255.78,122.11 583.03,186.33 882.45,-152.89 975.25,-195.07 26.95,318.73 196.23,555.3 445.22,697.06 73.64,41.93 192.26,100.04 288.85,107.68 71.77,-99.82 133.45,-133.27 186.24,-256.95 47.3,-110.83 69.73,-249.65 59.24,-385.95 -14.17,-184 -74.23,-351.09 -166.72,-499.18 -33.39,-53.48 -63.96,-88.94 -93.1,-136.14 65.73,12.62 126.5,25.57 198.49,27.72 68.6,2.05 154.29,-17.78 214.82,-0.63 238.95,67.73 771.56,312.11 958.67,467.28 -102.22,85.3 -145.41,103.02 -224.59,206.99 -237.91,312.38 -225.85,701.36 24.48,967.41 93.23,99.09 145.72,67.4 282.39,-4.95 111.45,-59.01 171.94,-114.96 235.38,-209.51 183.4,-273.35 50.59,-516.55 -4.56,-716.03 39.17,17.87 36.84,29.73 68.43,59.74l207.43 192.82c173.91,170.32 347.52,351.13 502.93,541.43 114.66,140.39 235.03,285.41 332.23,446.49 46.26,76.67 -102.57,359.33 -15.04,670.14 71.19,252.8 283.12,439.79 604.32,434.69 53.84,-139.33 101.31,-209.91 111.88,-387.92 20.77,-350.04 -166.9,-649.21 -473.75,-778.4 -61.23,-25.78 -80,-85.76 -116.53,-139.12 -68.83,-100.49 -142.07,-199.51 -213.63,-286.33l-167.34 -199.56c-21.96,-27.6 -40.99,-41.45 -64.67,-68.21 -80.27,-90.69 -160.48,-173.94 -241.47,-258.86 -43.99,-46.11 -81.88,-83.62 -127.61,-127.91 -41.8,-40.5 -102.08,-82.23 -128.76,-133.6 261.1,-26.08 406.22,-193.55 499.35,-373.25 -68.73,-178.77 -351.62,-370.83 -557.8,-417.92 -201.1,-45.91 -425.21,-2.66 -581.89,119.84 -38.57,30.15 -109.11,98.09 -135.33,110.9 -83.63,-39.04 -166.92,-83.86 -254.1,-125.8 -87.76,-42.24 -182.51,-73.28 -264.53,-116.12 240.34,-151.65 432.04,-534.96 416.48,-801.06 -321.07,-73.38 -515.65,-111.22 -841.19,19.87 -208.3,83.88 -449.97,281.27 -501.35,512.25z"/>
  <path class="fil0" d="M9981.15 6152.88c-105.83,-72.16 -125.14,-243.78 -67.79,-389.29 38.87,-98.62 153.1,-252.21 224.85,-291.33 46.58,155.17 93.22,212.12 32.92,404.53 -35.91,114.58 -121.24,227.55 -189.98,276.09zm-11.12 255.09c319.16,-166.92 527.98,-580.54 385.46,-939.66 -42.05,-105.97 -132.5,-234.59 -196.54,-284.14 -147.43,75 -387.26,366.39 -448.23,543.6 -47.47,138.02 -41.93,300.04 17.18,423.68 43.29,90.56 164.92,222.99 242.13,256.52z"/>
 </g>
</svg>
